<svg xmlns="http://www.w3.org/2000/svg" width="280" height="420" viewBox="0 0 280 420"><title>Olive branch in vase</title><defs>
<linearGradient id="linen" x2=".7" y2="1"><stop stop-color="#f0e6d4"/><stop offset=".55" stop-color="#dfd1b9"/><stop offset="1" stop-color="#bba98d"/></linearGradient>
<linearGradient id="olive" x2="1" y2=".5"><stop stop-color="#949677"/><stop offset=".5" stop-color="#777e57"/><stop offset="1" stop-color="#555f40"/></linearGradient>
<linearGradient id="wood" x2="1" y2=".8"><stop stop-color="#b68d60"/><stop offset=".5" stop-color="#987047"/><stop offset="1" stop-color="#785339"/></linearGradient>
<linearGradient id="stone" x2=".4" y2="1"><stop stop-color="#e5d7bd"/><stop offset="1" stop-color="#c4ae8c"/></linearGradient>
<linearGradient id="mirror" x2="1" y2="1"><stop stop-color="#9baba4"/><stop offset=".5" stop-color="#dbe1d7"/><stop offset="1" stop-color="#b4b5a5"/></linearGradient>
<linearGradient id="clay" x2="1"><stop stop-color="#985f47"/><stop offset=".4" stop-color="#c18664"/><stop offset="1" stop-color="#a26c50"/></linearGradient>
<pattern id="weave" width="6" height="6" patternUnits="userSpaceOnUse"><path d="M0 1h6M1 0v6" stroke="#806e52" stroke-opacity=".25"/><path d="M0 4h6M4 0v6" stroke="#fff" stroke-opacity=".2"/></pattern>
</defs><g fill="none" stroke="#716a45" stroke-width="4"><path d="M140 284Q100 176 123 32m20 252q29-128 74-171m-82 110L57 107"/></g><g fill="#788163"><ellipse cx="109" cy="66" rx="12" ry="29" transform="rotate(-35 109 66)"/><ellipse cx="143" cy="104" rx="12" ry="30" transform="rotate(40 143 104)"/><ellipse cx="97" cy="145" rx="12" ry="30" transform="rotate(-48 97 145)"/><ellipse cx="172" cy="158" rx="11" ry="27" transform="rotate(-30 172 158)"/><ellipse cx="207" cy="137" rx="11" ry="27" transform="rotate(45 207 137)"/><ellipse cx="72" cy="124" rx="11" ry="26" transform="rotate(-50 72 124)"/><ellipse cx="147" cy="199" rx="12" ry="29" transform="rotate(40 147 199)"/></g><path d="M105 259h70l17 117q-52 26-104 0z" fill="url(#linen)"/><ellipse cx="140" cy="259" rx="35" ry="9" fill="#b5a48d"/></svg>
