<svg xmlns="http://www.w3.org/2000/svg" width="440" height="280" viewBox="0 0 440 280"><title>Walnut sideboard</title><defs>
<linearGradient id="linen" x2=".7" y2="1"><stop stop-color="#f0e6d4"/><stop offset=".55" stop-color="#dfd1b9"/><stop offset="1" stop-color="#bba98d"/></linearGradient>
<linearGradient id="olive" x2="1" y2=".5"><stop stop-color="#949677"/><stop offset=".5" stop-color="#777e57"/><stop offset="1" stop-color="#555f40"/></linearGradient>
<linearGradient id="wood" x2="1" y2=".8"><stop stop-color="#b68d60"/><stop offset=".5" stop-color="#987047"/><stop offset="1" stop-color="#785339"/></linearGradient>
<linearGradient id="stone" x2=".4" y2="1"><stop stop-color="#e5d7bd"/><stop offset="1" stop-color="#c4ae8c"/></linearGradient>
<linearGradient id="mirror" x2="1" y2="1"><stop stop-color="#9baba4"/><stop offset=".5" stop-color="#dbe1d7"/><stop offset="1" stop-color="#b4b5a5"/></linearGradient>
<linearGradient id="clay" x2="1"><stop stop-color="#985f47"/><stop offset=".4" stop-color="#c18664"/><stop offset="1" stop-color="#a26c50"/></linearGradient>
<pattern id="weave" width="6" height="6" patternUnits="userSpaceOnUse"><path d="M0 1h6M1 0v6" stroke="#806e52" stroke-opacity=".25"/><path d="M0 4h6M4 0v6" stroke="#fff" stroke-opacity=".2"/></pattern>
</defs><path d="M69 204v34m302-34v34" stroke="#5e4132" stroke-width="13"/><path d="M48 88l23-22h317l-3 22z" fill="#a07a56"/><rect x="48" y="88" width="340" height="123" rx="3" fill="url(#wood)"/><path d="M161 91v116m113-116v116" stroke="#614531" stroke-width="3"/><path d="M146 137v24m30-24v24m83-24v24m30-24v24" stroke="#bc9a68" stroke-width="4"/></svg>
